<svg xmlns="http://www.w3.org/2000/svg" viewBox="0 0 258 258"><defs><style>.cls-1{fill:#15244f;}.cls-2{fill:#0282c9;}.cls-3{fill:#ffba00;}</style></defs><g id="Layer_2" data-name="Layer 2"><g id="Layer_1-2" data-name="Layer 1"><rect class="cls-1" width="258" height="258" rx="129"/><path class="cls-2" d="M80.2,179.22,38.48,137.5a12.1,12.1,0,0,1,0-17.1L80.09,78.78a12.1,12.1,0,0,1,17.1,0h0a12.1,12.1,0,0,1,0,17.1L64.12,129,97.3,162.12a12.1,12.1,0,0,1,0,17.1h0A12.1,12.1,0,0,1,80.2,179.22Z"/><path class="cls-2" d="M177.8,179.22l41.72-41.72a12.1,12.1,0,0,0,0-17.1L177.91,78.78a12.1,12.1,0,0,0-17.1,0h0a12.1,12.1,0,0,0,0,17.1L193.88,129,160.7,162.12a12.1,12.1,0,0,0,0,17.1h0A12.1,12.1,0,0,0,177.8,179.22Z"/><path class="cls-3" d="M124.07,158.53A16.21,16.21,0,0,0,105.49,172a16.41,16.41,0,0,0-.19,3.34v0c0,.35.06.69.09,1v.06a54.37,54.37,0,0,1-5.3,27.48l.25,0a32.39,32.39,0,0,0,37.08-26.43c0-.14.05-.27.07-.41l.06-.41A16.21,16.21,0,0,0,124.07,158.53Z"/><path class="cls-3" d="M130.53,63.44l-12,74.94a9.77,9.77,0,1,0,19.19,3.69L154.27,68a12.09,12.09,0,1,0-23.74-4.56Z"/></g></g></svg>